<svg id="visual" viewBox="0 0 1920 400" width="1920" height="400" xmlns="http://www.w3.org/2000/svg" xmlns:xlink="http://www.w3.org/1999/xlink" version="1.1"><g stroke-width="1" stroke-linejoin="bevel"><path d="M932 274.7L922 400L1063 312.7Z" fill="#2a749b" stroke="#2a749b"></path><path d="M922 400L1130 400L1063 312.7Z" fill="#091c2a" stroke="#091c2a"></path><path d="M932 274.7L791 400L922 400Z" fill="#00101c" stroke="#00101c"></path><path d="M1264 167.3L1095 143.3L1063 312.7Z" fill="#091c2a" stroke="#091c2a"></path><path d="M1063 312.7L1095 143.3L932 274.7Z" fill="#00101c" stroke="#00101c"></path><path d="M836 131.3L751 304.7L932 274.7Z" fill="#00101c" stroke="#00101c"></path><path d="M932 274.7L751 304.7L791 400Z" fill="#26678a" stroke="#26678a"></path><path d="M1095 143.3L981 92.3L932 274.7Z" fill="#26678a" stroke="#26678a"></path><path d="M981 92.3L836 131.3L932 274.7Z" fill="#26678a" stroke="#26678a"></path><path d="M1130 400L1264 167.3L1063 312.7Z" fill="#0e2739" stroke="#0e2739"></path><path d="M653 74.3L664 315.7L751 304.7Z" fill="#183f58" stroke="#183f58"></path><path d="M751 304.7L664 315.7L791 400Z" fill="#1d4c68" stroke="#1d4c68"></path><path d="M1275 400L1264 167.3L1130 400Z" fill="#00101c" stroke="#00101c"></path><path d="M1148 0L944 0L981 92.3Z" fill="#1d4c68" stroke="#1d4c68"></path><path d="M981 92.3L944 0L836 131.3Z" fill="#0e2739" stroke="#0e2739"></path><path d="M836 131.3L653 74.3L751 304.7Z" fill="#2a749b" stroke="#2a749b"></path><path d="M1148 0L981 92.3L1095 143.3Z" fill="#26678a" stroke="#26678a"></path><path d="M1275 400L1337 265.7L1264 167.3Z" fill="#2e83ac" stroke="#2e83ac"></path><path d="M1329 0L1148 0L1264 167.3Z" fill="#225979" stroke="#225979"></path><path d="M1264 167.3L1148 0L1095 143.3Z" fill="#183f58" stroke="#183f58"></path><path d="M944 0L797 0L836 131.3Z" fill="#133348" stroke="#133348"></path><path d="M664 315.7L592 400L791 400Z" fill="#1d4c68" stroke="#1d4c68"></path><path d="M499 285.7L592 400L664 315.7Z" fill="#133348" stroke="#133348"></path><path d="M797 0L653 74.3L836 131.3Z" fill="#0e2739" stroke="#0e2739"></path><path d="M1456 209.7L1407 182.3L1337 265.7Z" fill="#225979" stroke="#225979"></path><path d="M1337 265.7L1407 182.3L1264 167.3Z" fill="#1d4c68" stroke="#1d4c68"></path><path d="M1407 182.3L1329 0L1264 167.3Z" fill="#00101c" stroke="#00101c"></path><path d="M519 94.3L499 285.7L664 315.7Z" fill="#0e2739" stroke="#0e2739"></path><path d="M1493 400L1456 209.7L1337 265.7Z" fill="#2e83ac" stroke="#2e83ac"></path><path d="M1407 182.3L1444 0L1329 0Z" fill="#133348" stroke="#133348"></path><path d="M797 0L608 0L653 74.3Z" fill="#225979" stroke="#225979"></path><path d="M653 74.3L519 94.3L664 315.7Z" fill="#091c2a" stroke="#091c2a"></path><path d="M1275 400L1493 400L1337 265.7Z" fill="#2e83ac" stroke="#2e83ac"></path><path d="M608 0L519 94.3L653 74.3Z" fill="#0e2739" stroke="#0e2739"></path><path d="M499 285.7L431 400L592 400Z" fill="#2e83ac" stroke="#2e83ac"></path><path d="M318 400L431 400L300 251.7Z" fill="#183f58" stroke="#183f58"></path><path d="M1551 171.3L1407 182.3L1456 209.7Z" fill="#2e83ac" stroke="#2e83ac"></path><path d="M1551 171.3L1444 0L1407 182.3Z" fill="#2a749b" stroke="#2a749b"></path><path d="M1493 400L1563 233.7L1456 209.7Z" fill="#0e2739" stroke="#0e2739"></path><path d="M1563 233.7L1551 171.3L1456 209.7Z" fill="#3191be" stroke="#3191be"></path><path d="M1493 400L1600 400L1563 233.7Z" fill="#2a749b" stroke="#2a749b"></path><path d="M1761 0L1576 0L1551 171.3Z" fill="#091c2a" stroke="#091c2a"></path><path d="M608 0L460 0L519 94.3Z" fill="#00101c" stroke="#00101c"></path><path d="M300 251.7L431 400L499 285.7Z" fill="#091c2a" stroke="#091c2a"></path><path d="M300 251.7L499 285.7L310 178.3Z" fill="#1d4c68" stroke="#1d4c68"></path><path d="M1815 174.3L1551 171.3L1563 233.7Z" fill="#225979" stroke="#225979"></path><path d="M1551 171.3L1576 0L1444 0Z" fill="#1d4c68" stroke="#1d4c68"></path><path d="M310 178.3L499 285.7L519 94.3Z" fill="#0e2739" stroke="#0e2739"></path><path d="M460 0L310 178.3L519 94.3Z" fill="#091c2a" stroke="#091c2a"></path><path d="M460 0L303 0L310 178.3Z" fill="#0e2739" stroke="#0e2739"></path><path d="M127 122.3L148 312.7L300 251.7Z" fill="#2e83ac" stroke="#2e83ac"></path><path d="M1600 400L1787 400L1563 233.7Z" fill="#091c2a" stroke="#091c2a"></path><path d="M127 122.3L300 251.7L310 178.3Z" fill="#1d4c68" stroke="#1d4c68"></path><path d="M300 251.7L148 312.7L318 400Z" fill="#2a749b" stroke="#2a749b"></path><path d="M1787 400L1815 209.7L1563 233.7Z" fill="#3191be" stroke="#3191be"></path><path d="M1815 209.7L1815 174.3L1563 233.7Z" fill="#26678a" stroke="#26678a"></path><path d="M1815 174.3L1761 0L1551 171.3Z" fill="#2a749b" stroke="#2a749b"></path><path d="M148 312.7L126 400L318 400Z" fill="#2e83ac" stroke="#2e83ac"></path><path d="M303 0L127 122.3L310 178.3Z" fill="#26678a" stroke="#26678a"></path><path d="M148 312.7L0 400L126 400Z" fill="#2a749b" stroke="#2a749b"></path><path d="M1787 400L1920 272.7L1815 209.7Z" fill="#225979" stroke="#225979"></path><path d="M1815 209.7L1920 120.3L1815 174.3Z" fill="#26678a" stroke="#26678a"></path><path d="M1815 174.3L1920 120.3L1761 0Z" fill="#00101c" stroke="#00101c"></path><path d="M1920 400L1920 272.7L1787 400Z" fill="#225979" stroke="#225979"></path><path d="M303 0L102 0L127 122.3Z" fill="#00101c" stroke="#00101c"></path><path d="M0 224.7L0 400L148 312.7Z" fill="#3191be" stroke="#3191be"></path><path d="M1920 272.7L1920 120.3L1815 209.7Z" fill="#3191be" stroke="#3191be"></path><path d="M0 224.7L148 312.7L127 122.3Z" fill="#2a749b" stroke="#2a749b"></path><path d="M0 154.3L0 224.7L127 122.3Z" fill="#133348" stroke="#133348"></path><path d="M1920 120.3L1920 0L1761 0Z" fill="#00101c" stroke="#00101c"></path><path d="M0 0L0 154.3L127 122.3Z" fill="#183f58" stroke="#183f58"></path><path d="M102 0L0 0L127 122.3Z" fill="#2a749b" stroke="#2a749b"></path></g></svg>