<svg id="e1vg9fn0b8na1" xmlns="http://www.w3.org/2000/svg" xmlns:xlink="http://www.w3.org/1999/xlink" viewBox="-0.750000 -0.250000 190 180" shape-rendering="geometricPrecision" text-rendering="geometricPrecision"><style><![CDATA[#e1vg9fn0b8na3_tr {animation: e1vg9fn0b8na3_tr__tr 3000ms linear infinite normal forwards}@keyframes e1vg9fn0b8na3_tr__tr { 0% {transform: translate(61.872044px,139.566128px) rotate(0deg)} 33.333333% {transform: translate(61.872044px,139.566128px) rotate(23deg)} 100% {transform: translate(61.872044px,139.566128px) rotate(0deg)} }#e1vg9fn0b8na13_tr {animation: e1vg9fn0b8na13_tr__tr 3000ms linear infinite normal forwards}@keyframes e1vg9fn0b8na13_tr__tr { 0% {transform: translate(52.057661px,98.450416px) rotate(-13deg)} 33.333333% {transform: translate(52.057661px,98.450416px) rotate(7deg)} 100% {transform: translate(52.057661px,98.450416px) rotate(-13deg)} }#e1vg9fn0b8na38_tr {animation: e1vg9fn0b8na38_tr__tr 3000ms linear infinite normal forwards}@keyframes e1vg9fn0b8na38_tr__tr { 0% {transform: translate(30.648896px,109.285859px) rotate(0deg)} 33.333333% {transform: translate(30.648896px,109.285859px) rotate(-10deg)} 100% {transform: translate(30.648896px,109.285859px) rotate(0deg)} }#e1vg9fn0b8na56_tr {animation: e1vg9fn0b8na56_tr__tr 3000ms linear infinite normal forwards}@keyframes e1vg9fn0b8na56_tr__tr { 0% {transform: translate(76.800000px,97.850000px) rotate(-12deg)} 16.666667% {transform: translate(76.800000px,97.850000px) rotate(20deg)} 50% {transform: translate(76.800000px,97.850000px) rotate(-12deg)} 66.666667% {transform: translate(76.800000px,97.850000px) rotate(20deg)} 100% {transform: translate(76.800000px,97.850000px) rotate(-12deg)} }]]></style><g id="e1vg9fn0b8na2" transform="matrix(1 0 0 1 14.48657893999997 9.76693439499998)"><g id="e1vg9fn0b8na3_tr" transform="translate(61.872044,139.566128) rotate(0)"><g id="e1vg9fn0b8na3" transform="translate(-61.872044,-139.566128)"><path id="e1vg9fn0b8na4" d="M78.850000,140.500000Q70.750000,145.750000,67.050000,147.650000Q64.200000,149.150000,62.300000,146.650000Q60.450000,144.150000,62.050000,143.200000Q66,140.800000,71.750000,136.250000Q77.350000,131.800000,79.450000,129.550000Q75.800000,125.100000,74,123.600000L78,120.600000L83.750000,118.950000L82.650000,122.400000Q83.350000,122,87.150000,120.650000L86.700000,125.150000L85.800000,126.050000L90.150000,132.350000Q87.650000,134.750000,78.850000,140.500000" fill="rgb(118,58,0)" stroke="none" stroke-width="1"/><path id="e1vg9fn0b8na5" d="M132.750000,45Q132.650000,60,133,67.050000Q124.400000,68.950000,112.100000,73Q97.450000,77.850000,89.650000,82.150000L94.300000,88.900000L100.350000,97Q91.700000,102.750000,87.800000,106.050000L97,116.350000L86.700000,125.150000L87.150000,120.650000Q83.350000,122,82.650000,122.400000L83.750000,118.950000L78,120.600000L82.950000,116.400000Q78.250000,113.500000,71.350000,108.200000L82.050000,96L69.500000,81.400000L53.750000,63.750000Q100.650000,33.500000,133,24.850000Q132.800000,33.400000,132.750000,45" fill="rgb(255,225,0)" stroke="none" stroke-width="1"/><path id="e1vg9fn0b8na6" d="M79.200000,140.300000L66.950000,147.250000Q70.950000,144.700000,78.250000,138.800000L88.500000,130L90.250000,132.350000Q86.500000,135.800000,79.200000,140.300000" fill="rgb(84,36,0)" stroke="none" stroke-width="1"/><path id="e1vg9fn0b8na7" d="M111.700000,73.200000Q99.400000,77.350000,88.850000,81.700000Q94.800000,77.650000,109.050000,71Q124.700000,63.700000,132.700000,61.900000L132.900000,67.050000Q124.950000,68.750000,111.700000,73.200000" fill="rgb(249,190,0)" stroke="none" stroke-width="1"/><path id="e1vg9fn0b8na8" d="M97.600000,93.550000L100.450000,97.050000L86.900000,105.800000Q94.800000,96.050000,97.600000,93.550000" fill="rgb(249,190,0)" stroke="none" stroke-width="1"/><path id="e1vg9fn0b8na9" d="M96.800000,116.450000L92.500000,119.900000L87.200000,124.250000L87.500000,122.250000Q92.150000,115.250000,94.100000,113.250000L96.800000,116.450000" fill="rgb(249,190,0)" stroke="none" stroke-width="1"/><path id="e1vg9fn0b8na10" d="M133.850000,24.350000Q133.500000,29.150000,133.600000,45.400000L133.800000,67.550000L133.450000,68Q122.700000,70.300000,110.200000,74.550000Q98.450000,78.600000,90.800000,82.450000Q94,87.300000,101.300000,96.950000Q101.600000,97.300000,101.200000,97.550000Q93.300000,102.750000,88.950000,106.150000L97.850000,116.300000Q98.150000,116.600000,97.800000,116.900000L91.200000,122.350000Q87.750000,125.200000,86.800000,126.200000L90.950000,132.350000L90.900000,132.900000Q88.950000,134.850000,82.200000,139.200000Q75.050000,143.750000,67.500000,147.750000L66.600000,147.850000Q66.450000,147.550000,67.150000,147.150000Q85.200000,135.950000,89.150000,132.300000L85.100000,126.350000Q84.900000,126.050000,85.150000,125.800000L89.350000,121.750000L95.600000,116.350000Q90,109.600000,86.800000,106.400000Q86.450000,106.050000,86.850000,105.800000Q92.900000,100.950000,99.050000,96.900000Q92.700000,88.400000,88.650000,82.300000Q88.350000,81.900000,88.800000,81.700000Q96.700000,77.700000,108.400000,73.500000Q121.350000,68.800000,132,66.500000Q131.550000,59.700000,131.600000,45.650000Q131.650000,31.900000,132.050000,26.100000Q115.600000,30.600000,92.150000,42.450000Q70.250000,53.500000,55.450000,64.150000Q62.250000,71.450000,83,95.850000Q83.250000,96.150000,83,96.400000L77.550000,102.450000L72.550000,108.150000Q81.450000,114.850000,83.600000,116.200000Q84.050000,116.500000,83.650000,116.900000L75.450000,123.700000Q77.800000,126.050000,80.350000,129.500000Q80.600000,129.800000,80.350000,130.050000Q78.550000,132.200000,72.650000,136.600000Q66.850000,140.900000,62.500000,143.350000L61.700000,143.450000Q61.500000,143.200000,62.050000,142.800000L71.350000,135.850000Q76.750000,131.600000,78.450000,129.650000Q75.600000,125.950000,73.350000,124Q73,123.650000,73.400000,123.350000L81.650000,116.600000Q76.800000,113.400000,70.450000,108.700000Q70.100000,108.400000,70.400000,108.100000L80.900000,96.050000L66.750000,79.600000L52.950000,64.200000Q52.650000,63.850000,53,63.550000Q68,52.450000,91.850000,40.600000Q116.350000,28.400000,133.350000,23.900000Q133.950000,23.750000,133.850000,24.350000" fill="rgb(13,19,26)" stroke="none" stroke-width="1"/></g></g><path id="e1vg9fn0b8na11" d="M78,120.450000L83.650000,118.250000L84.250000,118.300000L84.350000,118.750000L83.300000,121.550000L86.850000,119.950000Q87.700000,119.650000,87.700000,120.400000Q87.650000,122.400000,87,125.150000L86,125.900000L86.500000,121.450000Q85.250000,121.750000,82.800000,122.800000Q81.850000,123.150000,82.100000,122.250000L82.950000,119.700000Q78.900000,120.950000,76.800000,121.700000L78,120.450000" fill="rgb(118,58,0)" stroke="none" stroke-width="1"/><path id="e1vg9fn0b8na12" d="M87.200000,124.250000L85.200000,125.750000L87.500000,122.250000L87.200000,124.250000" fill="rgb(84,36,0)" stroke="none" stroke-width="1"/><g id="e1vg9fn0b8na13_tr" transform="translate(52.057661,98.450416) rotate(-13)"><g id="e1vg9fn0b8na13" transform="translate(-47.060562,-95.136349)"><path id="e1vg9fn0b8na14" d="M12.500000,12.550000Q9.450000,14.250000,7.150000,20.400000Q5.200000,25.600000,4.900000,30.500000Q2.600000,23.600000,1.350000,12.550000Q0.050000,1.250000,1.700000,0.800000Q3.300000,0.350000,6.600000,4.200000Q9.250000,7.300000,12.500000,12.550000" transform="matrix(1 0 0 1 0.15874633500000 0)" fill="rgb(13,19,26)" stroke="none" stroke-width="1"/><path id="e1vg9fn0b8na15" d="M91.250000,7.850000Q92.900000,10.500000,92.600000,17.650000Q92.300000,23.950000,90.900000,28.600000Q87.200000,32.550000,82.100000,36.400000Q76.350000,40.800000,72.300000,42.250000Q76.950000,46,79.750000,50.900000Q81.600000,54.100000,83,58.750000Q85.400000,66.300000,83.300000,74.850000Q81.450000,82.350000,77.450000,86.400000Q68.250000,95,53.650000,96.950000Q41.150000,98.650000,29.600000,95.200000Q24.650000,93.550000,20.500000,89.250000Q15.850000,84.500000,14,78.150000Q12.200000,72.050000,13.250000,65.600000Q14.050000,60.500000,16.500000,55.850000Q13.400000,52.350000,9.550000,43.700000Q6.350000,36.350000,5,31.300000Q5.250000,23.950000,7.900000,18.500000Q9.900000,14.400000,12.300000,12.700000Q16.250000,18.350000,20.150000,28.350000Q24.250000,38.800000,24.800000,45.350000Q31.950000,38.800000,42.850000,36.450000Q52.800000,34.300000,60.300000,36.550000Q65.400000,28.450000,75.950000,19Q85.500000,10.500000,91.250000,7.850000" transform="matrix(1 0 0 1 -0.27331486500000 0)" fill="rgb(255,225,0)" stroke="none" stroke-width="1"/><path id="e1vg9fn0b8na16" d="M91.250000,7.850000Q96.450000,5.150000,101.900000,3.400000Q108.650000,1.250000,109.750000,2.900000Q111.150000,5,103.450000,15Q96.350000,24.150000,90.550000,29.100000Q92.350000,23.550000,92.600000,17.900000Q92.850000,11.950000,91.250000,7.850000" transform="matrix(1 0 0 1 -0.27331486500000 0)" fill="rgb(13,19,26)" stroke="none" stroke-width="1"/><path id="e1vg9fn0b8na17" d="M40.950000,77.950000L44.350000,75.750000Q45.350000,75,47.350000,74.400000L50.150000,73.900000L54.400000,73.450000Q54.250000,74.900000,53.300000,76.350000L47.800000,76.650000Q44.950000,77.700000,44.250000,79.800000L40.950000,77.950000" fill="rgb(181,0,5)" stroke="none" stroke-width="1"/><path id="e1vg9fn0b8na18" d="M44.200000,79.750000Q45.200000,77.800000,47.850000,76.700000Q50.750000,75.500000,53.400000,76.400000Q49.300000,81.800000,44.200000,79.750000" fill="rgb(229,0,18)" stroke="none" stroke-width="1"/><path id="e1vg9fn0b8na19" d="M25.150000,62.800000Q27.500000,62.150000,29.650000,63.600000Q31.750000,65.050000,32.500000,67.800000Q33.300000,70.450000,32.050000,72.600000Q30.900000,74.600000,28.500000,75.350000Q26.100000,76.050000,23.750000,74.850000Q21.450000,73.650000,20.800000,71.300000Q20,68.550000,21.200000,66.100000Q22.400000,63.550000,25.150000,62.800000" fill="rgb(13,19,26)" stroke="none" stroke-width="1"/><path id="e1vg9fn0b8na20" d="M60.950000,51.500000Q63.750000,50.600000,66.400000,52.100000Q69.150000,53.600000,69.750000,56.650000Q70.300000,59.200000,69,61.550000Q67.750000,63.900000,65.400000,64.700000Q62.650000,65.650000,60.150000,64.350000Q57.750000,63.100000,56.900000,60.600000Q55.900000,57.500000,57.200000,54.850000Q58.400000,52.300000,60.950000,51.500000" fill="rgb(13,19,26)" stroke="none" stroke-width="1"/><path id="e1vg9fn0b8na21" d="M43.900000,70.650000Q43.850000,70.450000,44.950000,70.150000L46.050000,69.950000L45.750000,70.600000L45.100000,71.050000L44.400000,71L43.900000,70.650000" fill="rgb(13,19,26)" stroke="none" stroke-width="1"/><path id="e1vg9fn0b8na22" d="M78.100000,63.900000Q80,64.650000,80.600000,67.850000Q81.250000,71.050000,80.100000,74.100000Q78.850000,77.550000,76.200000,79.250000Q73.550000,80.950000,71.300000,79.850000Q69.050000,78.800000,68.350000,75.800000Q67.600000,72.650000,69.100000,69.400000Q70.700000,65.950000,73.350000,64.400000Q75.850000,63,78.100000,63.900000" fill="rgb(229,0,18)" stroke="none" stroke-width="1"/><path id="e1vg9fn0b8na23" d="M25.100000,82.900000Q27.300000,85.700000,28.050000,88.450000Q28.800000,91.350000,27.400000,92.350000Q26.050000,93.300000,23.550000,91.800000Q21.400000,90.550000,18.950000,87.850000Q16.800000,85.400000,15.950000,82.800000Q15.100000,80.150000,16.200000,79.050000Q17.550000,77.800000,20.300000,79Q22.950000,80.150000,25.100000,82.900000" fill="rgb(229,0,18)" stroke="none" stroke-width="1"/><path id="e1vg9fn0b8na24" d="M5.150000,1.950000Q11.150000,7.650000,16.800000,18.700000Q23.500000,31.850000,25.300000,44.950000L24.300000,45.850000Q22.250000,32.700000,15.200000,19.100000Q9.850000,8.700000,4.450000,2.750000Q2.900000,1.150000,2.200000,1.200000Q1.300000,1.300000,1.250000,3.850000Q1,12.550000,4.800000,27.250000Q9.400000,45.050000,16.700000,55.300000L16.200000,56.550000Q8.250000,46.300000,3.450000,28.600000Q-0.750000,13.050000,0.100000,3.700000Q0.350000,0.400000,1.650000,0.050000Q2.850000,-0.250000,5.150000,1.950000" fill="rgb(13,19,26)" stroke="none" stroke-width="1"/><path id="e1vg9fn0b8na25" d="M5.600000,32.250000L4.550000,29.700000Q5,23.650000,6.950000,19.050000Q8.850000,14.500000,11.950000,12.100000L12.700000,13.150000Q9.450000,15.700000,7.600000,20.900000Q5.800000,25.900000,5.600000,32.250000" fill="rgb(13,19,26)" stroke="none" stroke-width="1"/><path id="e1vg9fn0b8na26" d="M93.550000,25.200000Q103.850000,14.450000,108.400000,6.500000Q109.850000,4,109.300000,3.250000L105.550000,3.150000Q96.800000,4.850000,85.900000,12.050000Q71.400000,21.600000,60.850000,36.700000L59.700000,36.350000Q70.800000,20,85.050000,10.650000Q95.700000,3.650000,105.250000,2.050000Q109.550000,1.300000,110.400000,2.600000Q111.150000,3.800000,109.450000,7.050000Q104.700000,15.950000,94.250000,26.650000Q82.450000,38.700000,72.850000,42.700000L71.800000,41.950000Q81.250000,37.950000,93.550000,25.200000" fill="rgb(13,19,26)" stroke="none" stroke-width="1"/><path id="e1vg9fn0b8na27" d="M91.600000,28L89.750000,29.550000Q92,22.500000,92.050000,15.950000Q92.050000,10.500000,90.850000,8.450000L91.850000,7.750000Q93.150000,10,93.350000,15Q93.550000,21.200000,91.600000,28" fill="rgb(13,19,26)" stroke="none" stroke-width="1"/><path id="e1vg9fn0b8na28" d="M37,78.500000Q36.550000,78.200000,36.750000,77.950000L37.450000,77.900000Q39.300000,78.600000,43,75.950000Q45.150000,74.400000,46.750000,73.900000Q48.350000,73.350000,51.300000,73.250000L54.650000,72.750000Q56,72.250000,56.350000,71.050000Q56.600000,70.450000,56.900000,70.550000Q57.200000,70.600000,57.100000,71.250000Q56.500000,74.300000,51.300000,74.500000L47.100000,75.100000Q45.600000,75.600000,43.650000,77Q39.350000,80.100000,37,78.500000" fill="rgb(13,19,26)" stroke="none" stroke-width="1"/><path id="e1vg9fn0b8na29" d="M41.500000,77.550000Q45.500000,80.650000,48.900000,79.450000Q50.700000,78.800000,52.050000,77.150000Q53.400000,75.500000,53.900000,73.450000L55.250000,73.200000Q54.900000,75.550000,53.150000,77.550000Q51.500000,79.450000,49.250000,80.300000L44.950000,80.550000Q42.600000,80.050000,40.400000,78.300000L41.500000,77.550000" fill="rgb(13,19,26)" stroke="none" stroke-width="1"/><path id="e1vg9fn0b8na30" d="M53.500000,75.850000L53.050000,76.750000Q50.850000,76.050000,48.200000,77.050000Q45.550000,78.050000,44.700000,79.900000L43.700000,79.600000Q44.750000,77.350000,47.650000,76.200000Q50.550000,75.050000,53.500000,75.850000" fill="rgb(13,19,26)" stroke="none" stroke-width="1"/><path id="e1vg9fn0b8na31" d="M17.600000,53.150000Q18.150000,52.350000,18.500000,52.550000Q18.850000,52.800000,18.350000,53.600000Q14.950000,59.400000,14.050000,65.600000Q13.150000,71.850000,14.850000,78Q16.700000,84.700000,21.500000,89.300000Q26.250000,93.800000,33.250000,95.750000Q34.600000,96.150000,34.500000,96.500000L33.050000,96.650000Q25.850000,95.250000,20.400000,90.300000Q14.950000,85.350000,13.050000,78.450000Q11.300000,72.150000,12.500000,65.450000Q13.700000,58.700000,17.600000,53.150000" transform="matrix(1 0 0 1 -0.14999676000000 0)" fill="rgb(13,19,26)" stroke="none" stroke-width="1"/><path id="e1vg9fn0b8na32" d="M50.350000,35Q57.100000,34.800000,62.450000,36.800000Q63.350000,37.150000,63.250000,37.500000L62.200000,37.600000Q50.600000,34.400000,37.600000,38.900000Q29.350000,41.700000,23.700000,47Q23,47.650000,22.750000,47.400000Q22.450000,47.100000,23.100000,46.400000Q28.400000,40.400000,37.100000,37.400000Q43.750000,35.150000,50.350000,35" fill="rgb(13,19,26)" stroke="none" stroke-width="1"/><path id="e1vg9fn0b8na33" d="M83.200000,56.300000Q85.650000,63.250000,84.600000,71.500000Q83.400000,80.850000,78,86.500000Q77.350000,87.200000,77.100000,86.950000Q76.800000,86.700000,77.350000,85.950000Q82.050000,79.800000,83.050000,71.150000Q83.950000,63.350000,81.600000,56.800000Q78.150000,46.950000,70.200000,41.350000Q69.350000,40.750000,69.600000,40.450000Q69.800000,40.150000,70.700000,40.650000Q74.900000,43.100000,78.200000,47.200000Q81.450000,51.300000,83.200000,56.300000" fill="rgb(13,19,26)" stroke="none" stroke-width="1"/><path id="e1vg9fn0b8na34" d="M17.600000,53.150000Q18.150000,52.350000,18.500000,52.550000Q18.850000,52.800000,18.350000,53.600000Q14.950000,59.400000,14.050000,65.600000Q13.150000,71.850000,14.850000,78Q16.700000,84.700000,21.500000,89.300000Q26.250000,93.800000,33.250000,95.750000Q34.600000,96.150000,34.500000,96.500000L33.050000,96.650000Q25.850000,95.250000,20.400000,90.300000Q14.950000,85.350000,13.050000,78.450000Q11.300000,72.150000,12.500000,65.450000Q13.700000,58.700000,17.600000,53.150000" fill="rgb(13,19,26)" stroke="none" stroke-width="1"/><path id="e1vg9fn0b8na35" d="M24.850000,63.500000L27.100000,63.600000Q28.150000,64.100000,28.550000,65.150000Q28.950000,66.300000,28.550000,67.350000Q28.100000,68.450000,26.900000,68.900000L24.650000,68.800000Q23.600000,68.300000,23.250000,67.150000Q22.900000,65.950000,23.400000,64.900000Q23.850000,63.850000,24.850000,63.500000" fill="rgb(255,255,255)" stroke="none" stroke-width="1"/><path id="e1vg9fn0b8na36" d="M60.600000,52.250000Q61.700000,51.750000,62.850000,52.250000Q64,52.700000,64.450000,53.850000Q64.850000,54.900000,64.450000,56.050000Q64.050000,57.300000,62.900000,57.700000Q61.700000,58.150000,60.650000,57.700000Q59.550000,57.250000,59.100000,56.150000Q58.650000,55.050000,59.050000,53.900000Q59.450000,52.750000,60.600000,52.250000" fill="rgb(255,255,255)" stroke="none" stroke-width="1"/></g></g><path id="e1vg9fn0b8na37" d="M33.950000,92.700000Q43.600000,88.050000,51.050000,86.400000Q57.050000,85.100000,67,85.150000Q76.800000,85.150000,77.450000,86.400000Q80.250000,91.750000,83.050000,101.500000Q86.050000,112.100000,87.450000,122.450000Q91,149.250000,81.650000,156.250000Q74.800000,161.450000,57.700000,155.100000Q50.200000,152.400000,46.650000,151.550000Q42.100000,150.500000,37.300000,150.700000Q32.450000,150.900000,28.700000,149.600000Q25.300000,148.450000,23.800000,146.550000Q20.400000,142.150000,21.250000,131.700000Q21.900000,123.850000,24.450000,115.750000L27.300000,107.650000L30.100000,100.100000Q30.650000,98.750000,32.350000,95.600000L33.950000,92.700000" fill="rgb(255,225,0)" stroke="none" stroke-width="1"/><g id="e1vg9fn0b8na38_tr" transform="translate(30.648896,109.285859) rotate(0)"><g id="e1vg9fn0b8na38" transform="translate(-30.648896,-109.285859)"><path id="e1vg9fn0b8na39" d="M33.950000,92.700000Q35.550000,92.150000,36.450000,95.700000Q37.400000,99.450000,36.100000,103.500000Q34.700000,107.800000,30.750000,111.900000Q26.850000,116,24.450000,115.750000Q21.800000,115.800000,19.250000,114.950000Q17,114.150000,16.900000,113.450000Q16.900000,112.400000,18,111.600000L16.200000,108.300000Q15.300000,106.500000,15.400000,106.200000Q15.650000,105.800000,17.350000,105.950000Q17.300000,103,19.550000,104.200000Q19.650000,101.850000,21.500000,103.550000Q23,101.150000,25.500000,98.700000Q27.650000,96.550000,29.600000,95.200000Q31.200000,93.650000,33.950000,92.700000" fill="rgb(255,225,0)" stroke="none" stroke-width="1"/><path id="e1vg9fn0b8na40" d="M17,112.750000Q17.800000,113.350000,20.600000,113.400000L25.200000,112.900000L24.500000,115.650000Q21.750000,115.750000,19.050000,114.800000Q16.200000,113.800000,17,112.750000" fill="rgb(249,190,0)" stroke="none" stroke-width="1"/><path id="e1vg9fn0b8na41" d="M28.800000,94.950000L30.250000,95.400000Q25.050000,99,21.100000,104.800000Q20.550000,105.650000,20.250000,105.500000Q19.950000,105.300000,20.500000,104.450000Q24.100000,98.300000,28.800000,94.950000" fill="rgb(13,19,26)" stroke="none" stroke-width="1"/><path id="e1vg9fn0b8na42" d="M21.650000,103.100000L21.050000,103.850000Q20.450000,103.400000,20.200000,103.500000L20,104.100000L19.700000,104.750000L18.950000,104.550000L18.200000,104.400000Q17.850000,104.550000,17.800000,105.400000L17.600000,106.350000L16.700000,106.350000L15.950000,106.500000Q15.750000,106.800000,17.100000,109.150000L18.500000,111.600000L17.950000,112.300000Q17.350000,112.900000,17.400000,113.300000Q17.500000,113.900000,20.250000,114.550000L24.550000,115L24.300000,116.200000Q22.150000,116.400000,19.250000,115.400000Q16.350000,114.450000,16.150000,113.500000Q16,112.600000,17.350000,111.550000Q14.500000,106.800000,14.850000,105.950000Q15,105.600000,15.750000,105.500000L17,105.600000Q16.900000,104.950000,17.100000,104.300000Q17.250000,103.650000,17.600000,103.450000L18.350000,103.350000Q18.850000,103.450000,19.200000,103.700000Q19.300000,102.550000,19.900000,102.400000L20.750000,102.550000L21.650000,103.100000" fill="rgb(13,19,26)" stroke="none" stroke-width="1"/></g></g><path id="e1vg9fn0b8na43" d="M15.950000,146.250000Q18.600000,144.050000,21.650000,143.100000Q24.450000,149.750000,33.700000,150.650000Q29.300000,152.850000,23.250000,153.800000Q17.150000,154.700000,16.100000,153.300000Q14.050000,153.800000,13.700000,152.750000Q13.400000,151.900000,14.100000,150.850000Q12.650000,148.950000,15.950000,146.250000" fill="rgb(255,225,0)" stroke="none" stroke-width="1"/><path id="e1vg9fn0b8na44" d="M72.800000,158.550000Q76.850000,158.700000,80.200000,157.150000Q83.350000,155.700000,84.650000,153.400000Q87.250000,157.700000,87.850000,161.550000Q88.450000,165.500000,86.650000,166.550000Q86.600000,168,85.300000,168Q84.150000,167.950000,83.400000,167.050000Q82.800000,168.700000,78.600000,165.600000Q74.300000,162.400000,72.800000,158.550000" fill="rgb(255,225,0)" stroke="none" stroke-width="1"/><path id="e1vg9fn0b8na45" d="M47.250000,98.050000Q47.200000,97.350000,50.700000,96.800000L54.300000,97Q54.350000,97.600000,52.950000,98.250000L50.750000,98.900000L48.600000,98.800000Q47.250000,98.550000,47.250000,98.050000" fill="rgb(249,190,0)" stroke="none" stroke-width="1"/><path id="e1vg9fn0b8na46" d="M21.250000,134.600000Q23.050000,147.950000,35.950000,146.900000Q42.450000,146.350000,48.500000,147.800000Q53.700000,149.050000,61.050000,152.450000Q69.350000,156.350000,77.450000,153.350000Q87.800000,149.550000,88.750000,135.050000Q88.650000,146.400000,85.750000,151.700000Q81.100000,160.350000,68.500000,158.050000Q64.300000,157.300000,52.700000,153.450000Q43.200000,150.300000,40.250000,150.650000Q30.950000,151.750000,25.850000,148Q20.200000,143.850000,21.250000,134.600000" fill="rgb(249,190,0)" stroke="none" stroke-width="1"/><path id="e1vg9fn0b8na47" d="M17.650000,145.200000Q17.900000,144.850000,19.750000,144.150000L22,143.350000Q23,146.250000,26.950000,148.500000Q30.550000,150.550000,33.650000,150.550000Q30.500000,152.250000,26.600000,153.100000Q21.950000,146.150000,17.650000,145.200000" fill="rgb(249,190,0)" stroke="none" stroke-width="1"/><path id="e1vg9fn0b8na48" d="M76.600000,163.900000L74.550000,161.400000Q73.550000,159.900000,73.150000,158.550000Q80.450000,159.300000,84.550000,153.450000Q86.200000,156,86.550000,157.150000Q83.200000,157.350000,80.400000,159.200000Q77.550000,161.050000,76.600000,163.900000" fill="rgb(249,190,0)" stroke="none" stroke-width="1"/><path id="e1vg9fn0b8na49" d="M79.550000,92.400000Q79.200000,91.250000,79.550000,91.100000Q79.950000,90.950000,80.350000,92.100000Q89.100000,116.350000,89,135.500000Q88.850000,154.850000,79.600000,158.450000Q74.550000,160.400000,65.150000,158.300000Q59.450000,157.050000,50.200000,153.650000Q46.350000,152.250000,44.300000,151.800000L38.100000,151.350000L30.250000,150.850000Q25.750000,149.850000,22.850000,146.600000Q19.150000,142.550000,21,129.150000Q22.850000,115.450000,29.450000,100.750000Q29.900000,99.750000,30.300000,99.900000Q30.650000,100.050000,30.200000,101.050000Q24.150000,115.850000,22.400000,128.900000Q20.750000,141.700000,24.150000,145.500000Q26.900000,148.600000,30.800000,149.500000L38.100000,150.050000L44.900000,150.500000Q46.950000,150.900000,50.650000,152.350000Q70.700000,159.950000,78.950000,156.800000Q87.400000,153.600000,87.250000,134.650000Q87.150000,116.650000,79.550000,92.400000" fill="rgb(13,19,26)" stroke="none" stroke-width="1"/><path id="e1vg9fn0b8na50" d="M14.100000,147.400000Q16.400000,144.400000,21.550000,142.500000L22,143.700000Q17.600000,145.450000,15.450000,147.650000Q13.600000,149.600000,14.350000,150.550000L13.600000,151.600000Q12,150.150000,14.100000,147.400000" fill="rgb(13,19,26)" stroke="none" stroke-width="1"/><path id="e1vg9fn0b8na51" d="M18.050000,147.250000Q18.750000,146.900000,18.900000,147.250000Q19.100000,147.550000,18.400000,147.950000Q16.700000,148.950000,15.450000,150.350000Q14.100000,151.800000,14.400000,152.550000L16.100000,152.700000L16.550000,153.800000L14.500000,154Q13.300000,153.850000,13.050000,153.150000Q12.550000,151.800000,14.400000,149.850000Q16.050000,148.100000,18.050000,147.250000" fill="rgb(13,19,26)" stroke="none" stroke-width="1"/><path id="e1vg9fn0b8na52" d="M32.950000,150.500000L35,150.800000Q29.450000,153.550000,22.550000,154.500000Q15.750000,155.400000,15.200000,153.550000Q14.900000,152.600000,16.450000,151.150000Q18.100000,149.550000,20.300000,149Q21,148.850000,21.100000,149.150000Q21.200000,149.500000,20.550000,149.750000Q18.900000,150.400000,17.700000,151.400000Q16.550000,152.400000,16.700000,153Q16.900000,153.850000,21.700000,153.400000Q27.300000,152.850000,32.950000,150.500000" fill="rgb(13,19,26)" stroke="none" stroke-width="1"/><path id="e1vg9fn0b8na53" d="M72.100000,158.500000L73.550000,158.400000Q74.900000,162.050000,78.550000,164.900000Q81.800000,167.450000,82.750000,166.900000Q83.200000,166.600000,82.600000,164.950000Q82.050000,163.300000,80.850000,161.350000Q80.500000,160.850000,80.800000,160.650000Q81.050000,160.500000,81.450000,160.950000Q83,162.800000,83.650000,165.150000Q84.300000,167.600000,83.350000,168.100000Q81.900000,168.850000,78,165.950000Q73.650000,162.700000,72.100000,158.500000" fill="rgb(13,19,26)" stroke="none" stroke-width="1"/><path id="e1vg9fn0b8na54" d="M84.550000,160.300000Q84.250000,159.600000,84.600000,159.450000Q84.900000,159.300000,85.250000,159.950000Q87,163.250000,87.100000,165.800000Q87.150000,168,86.050000,168.450000L84.700000,168.500000Q83.800000,168.300000,83.100000,167.550000L83.600000,166.450000Q84.850000,167.700000,85.600000,167.350000Q86.200000,167.050000,86,165.250000Q85.750000,163.250000,84.550000,160.300000" fill="rgb(13,19,26)" stroke="none" stroke-width="1"/><path id="e1vg9fn0b8na55" d="M84.150000,153.900000L85.050000,152.800000Q87.800000,157.350000,88.400000,161.700000Q89,166.450000,86.450000,167.550000L86.600000,166.150000Q87.850000,164.950000,87.100000,161.250000Q86.350000,157.650000,84.150000,153.900000" fill="rgb(13,19,26)" stroke="none" stroke-width="1"/><g id="e1vg9fn0b8na56_tr" transform="translate(76.800000,97.850000) rotate(-12)"><g id="e1vg9fn0b8na56" transform="translate(-76.012476,-97.100119)"><path id="e1vg9fn0b8na57" d="M94.050000,98.600000Q88.800000,105.250000,81.200000,107.900000Q75.950000,109.700000,69.450000,103.550000Q62.900000,97.350000,66.050000,92.950000Q69.250000,88.500000,74.750000,84.150000Q81.150000,79.050000,86.800000,77.500000Q88.850000,74.250000,89.450000,74.100000L90.900000,74.400000Q91.950000,74.900000,92.750000,76.150000Q95.400000,76.500000,97.200000,78.600000Q99.100000,80.750000,99.250000,83.900000Q99.550000,91.600000,94.050000,98.600000" fill="rgb(255,225,0)" stroke="none" stroke-width="1"/><path id="e1vg9fn0b8na58" d="M98.700000,81.300000Q101.500000,88.850000,94.800000,97.850000Q88.500000,106.400000,81.150000,107.400000Q87.950000,104.250000,93.550000,95.850000Q99.100000,87.500000,98.700000,81.300000" fill="rgb(249,190,0)" stroke="none" stroke-width="1"/><path id="e1vg9fn0b8na59" d="M91.250000,74.100000Q92.350000,74.600000,93.100000,75.800000Q99.400000,76.550000,100,84.550000Q100.500000,91.250000,95.550000,98.100000Q90.150000,105.450000,81.600000,108.150000L80.550000,108.050000Q80.400000,107.650000,81.300000,107.300000Q89.050000,104.350000,94.150000,97.500000Q99.100000,90.850000,98.700000,84.700000Q98.200000,78,93.100000,76.800000Q92.450000,76.750000,92.250000,76.300000Q91.900000,75.650000,91,75.250000L89.450000,75Q89,75.150000,88.250000,76.400000Q87.500000,77.750000,87.050000,77.900000Q81.200000,80.200000,76.750000,83.350000Q71.550000,87.050000,66.750000,92.800000Q66.150000,93.500000,65.800000,93.250000Q65.500000,93,66.050000,92.200000Q71.300000,85.400000,77.100000,81.500000Q81.250000,78.700000,86.350000,77.050000L87.600000,75.450000Q88.500000,74,89.250000,73.850000Q90.200000,73.600000,91.250000,74.100000" fill="rgb(13,19,26)" stroke="none" stroke-width="1"/><path id="e1vg9fn0b8na60" d="M90.100000,77.050000L91,76.900000Q91.250000,77.050000,90.750000,77.600000Q90.200000,78.250000,90.200000,78.450000Q90.200000,78.800000,90.500000,79.250000L90.800000,79.850000L90.400000,80.400000Q90,80.850000,90,81.400000Q90,82.050000,90.400000,82.650000L90.800000,83.400000L90.550000,84Q90.250000,84.500000,90.300000,84.900000Q90.350000,85.300000,90.900000,85.900000L91.500000,86.650000L91.250000,87.400000Q91.050000,88,91.150000,88.500000L91.950000,89.200000L93.300000,89.650000Q93.950000,89.700000,93.950000,90.050000L93.400000,90.450000L91.550000,90.150000Q90.450000,89.700000,90.200000,88.950000Q90.050000,88.550000,90.150000,87.900000Q90.250000,87.200000,90.600000,86.800000L89.750000,86.100000Q89.350000,85.600000,89.300000,85.100000Q89.100000,84.200000,90,83.400000Q89.050000,82.600000,88.900000,81.550000Q88.800000,80.450000,89.900000,79.700000Q89.250000,79.200000,89.250000,78.350000Q89.200000,78,89.500000,77.600000L90.100000,77.050000" fill="rgb(13,19,26)" stroke="none" stroke-width="1"/></g></g></g></svg>